<mxfile host="app.diagrams.net" agent="Mozilla/5.0 (Windows NT 10.0; Win64; x64) AppleWebKit/537.36 (KHTML, like Gecko) Chrome/137.0.0.0 Safari/537.36" version="27.1.4">
  <diagram name="Page-1" id="2w3nHXnGOUs6vI-de_ow">
    <mxGraphModel dx="1426" dy="743" grid="1" gridSize="10" guides="1" tooltips="1" connect="1" arrows="1" fold="1" page="1" pageScale="1" pageWidth="827" pageHeight="1169" math="0" shadow="0">
      <root>
        <mxCell id="0" />
        <mxCell id="1" parent="0" />
        <mxCell id="YsJjUmkhJcwvbpgUZygc-4" value="&lt;h1&gt;&lt;b&gt;&lt;font style=&quot;font-size: 16px;&quot;&gt;Snowflake&lt;/font&gt;&lt;/b&gt;&lt;/h1&gt;" style="html=1;whiteSpace=wrap;verticalAlign=top;" vertex="1" parent="1">
          <mxGeometry x="70" y="250" width="440" height="290" as="geometry" />
        </mxCell>
        <mxCell id="YsJjUmkhJcwvbpgUZygc-5" value="Dev 1 Schema" style="html=1;whiteSpace=wrap;" vertex="1" parent="1">
          <mxGeometry x="370" y="280" width="110" height="50" as="geometry" />
        </mxCell>
        <mxCell id="YsJjUmkhJcwvbpgUZygc-11" style="edgeStyle=orthogonalEdgeStyle;rounded=0;orthogonalLoop=1;jettySize=auto;html=1;exitX=1;exitY=0.5;exitDx=0;exitDy=0;entryX=0;entryY=0.5;entryDx=0;entryDy=0;startArrow=block;startFill=1;endArrow=block;endFill=1;" edge="1" parent="1" source="YsJjUmkhJcwvbpgUZygc-6" target="YsJjUmkhJcwvbpgUZygc-10">
          <mxGeometry relative="1" as="geometry" />
        </mxCell>
        <mxCell id="YsJjUmkhJcwvbpgUZygc-6" value="Dev 2 Schema" style="html=1;whiteSpace=wrap;" vertex="1" parent="1">
          <mxGeometry x="370" y="360" width="110" height="50" as="geometry" />
        </mxCell>
        <mxCell id="YsJjUmkhJcwvbpgUZygc-13" style="edgeStyle=orthogonalEdgeStyle;rounded=0;orthogonalLoop=1;jettySize=auto;html=1;exitX=1;exitY=0.5;exitDx=0;exitDy=0;entryX=0;entryY=0.5;entryDx=0;entryDy=0;startArrow=block;startFill=1;" edge="1" parent="1" source="YsJjUmkhJcwvbpgUZygc-7" target="YsJjUmkhJcwvbpgUZygc-12">
          <mxGeometry relative="1" as="geometry" />
        </mxCell>
        <mxCell id="YsJjUmkhJcwvbpgUZygc-7" value="Dev 3&amp;nbsp;&lt;span style=&quot;background-color: transparent; color: light-dark(rgb(0, 0, 0), rgb(255, 255, 255));&quot;&gt;Schema&lt;/span&gt;" style="html=1;whiteSpace=wrap;" vertex="1" parent="1">
          <mxGeometry x="370" y="440" width="110" height="50" as="geometry" />
        </mxCell>
        <mxCell id="YsJjUmkhJcwvbpgUZygc-9" style="edgeStyle=orthogonalEdgeStyle;rounded=0;orthogonalLoop=1;jettySize=auto;html=1;exitX=0;exitY=0.5;exitDx=0;exitDy=0;entryX=1;entryY=0.5;entryDx=0;entryDy=0;startArrow=block;startFill=1;endArrow=block;endFill=1;" edge="1" parent="1" source="YsJjUmkhJcwvbpgUZygc-8" target="YsJjUmkhJcwvbpgUZygc-5">
          <mxGeometry relative="1" as="geometry" />
        </mxCell>
        <mxCell id="YsJjUmkhJcwvbpgUZygc-8" value="Dev 1 environment" style="html=1;whiteSpace=wrap;" vertex="1" parent="1">
          <mxGeometry x="720" y="210" width="270" height="100" as="geometry" />
        </mxCell>
        <mxCell id="YsJjUmkhJcwvbpgUZygc-10" value="Dev 2 environment" style="html=1;whiteSpace=wrap;" vertex="1" parent="1">
          <mxGeometry x="720" y="335" width="270" height="100" as="geometry" />
        </mxCell>
        <mxCell id="YsJjUmkhJcwvbpgUZygc-12" value="Dev 3&lt;span style=&quot;background-color: transparent; color: light-dark(rgb(0, 0, 0), rgb(255, 255, 255));&quot;&gt;&amp;nbsp;environment&lt;/span&gt;" style="html=1;whiteSpace=wrap;" vertex="1" parent="1">
          <mxGeometry x="720" y="460" width="270" height="100" as="geometry" />
        </mxCell>
        <mxCell id="YsJjUmkhJcwvbpgUZygc-14" value="account=E2OPEN-E2DEV;&#xa;user=ServiceAccount;&#xa;password=...;&#xa;schema={Changes based on environment};&#xa;&#xa;&#xa;db={Database};&#xa;warehouse={Warehouse};&#xa;role={Role}&quot;;" style="text;whiteSpace=wrap;" vertex="1" parent="1">
          <mxGeometry x="80" y="400" width="240" height="130" as="geometry" />
        </mxCell>
      </root>
    </mxGraphModel>
  </diagram>
</mxfile>
